<?xml version="1.0" encoding="utf-8"?>
<!-- Generator: Adobe Illustrator 19.2.1, SVG Export Plug-In . SVG Version: 6.00 Build 0)  -->
<svg version="1.1" id="layer" xmlns="http://www.w3.org/2000/svg" xmlns:xlink="http://www.w3.org/1999/xlink" x="0px" y="0px"
	 viewBox="0 0 652 652" style="enable-background:new 0 0 652 652;" xml:space="preserve">
<style type="text/css">
	.st0{fill:none;stroke:#C0012C;stroke-width:3.9838;stroke-linejoin:round;stroke-miterlimit:10;}
	.st1{fill:none;stroke:#C0012C;stroke-width:1.5316;stroke-linejoin:round;stroke-miterlimit:10;}
	.st2{fill-rule:evenodd;clip-rule:evenodd;fill:#C0012C;}
	.st3{fill:none;stroke:#C0012C;stroke-width:0.5859;stroke-linejoin:round;stroke-miterlimit:10;}
	.st4{fill:none;stroke:#C0012C;stroke-width:2.4522;stroke-linejoin:round;stroke-miterlimit:10;}
	.st5{fill:none;stroke:#C0012C;stroke-width:3.5779;stroke-linejoin:round;stroke-miterlimit:10;}
	.st6{fill:none;stroke:#C0012C;stroke-width:3.6784;stroke-linejoin:round;stroke-miterlimit:10;}
	.st7{fill:none;stroke:#C0012C;stroke-width:2.9628;stroke-linejoin:round;stroke-miterlimit:10;}
	.st8{fill:none;stroke:#C0012C;stroke-width:2.0421;stroke-linejoin:round;stroke-miterlimit:10;}
	.st9{fill:none;stroke:#C0012C;stroke-width:7.8672;stroke-linejoin:round;stroke-miterlimit:10;}
</style>
<g>
	<g>
		<line class="st0" x1="320.9" y1="428.6" x2="320.9" y2="483.9"/>
		<polyline class="st0" points="320.9,326.8 321.1,326.6 321.2,326 321.8,325.1 323,324.2 324.7,323.3 327,322.4 327.5,322.4 
			328.7,322.1 330.6,322 333,321.8 335.8,321.8 339,322 345.4,322.6 351.4,323.3 356.6,323.7 361.4,324.1 366.9,324.2 371.4,324.2 
			375.4,324.2 378.5,324.2 378.5,415.2 378.1,415.2 376.7,415.3 374.5,415.3 371.9,415.3 368.7,415.3 365,415.3 359.7,415.2 
			355,414.9 350.9,414.6 346.9,414.3 343.3,414 339.7,413.7 335.8,413.5 331.4,413.5 329.1,413.7 327.2,414.4 325.6,415.3 
			324.5,416.3 323.6,417.3 322.7,418.2 321.8,418.8 320.9,419.1 320,418.8 319.2,418.2 318.4,417.3 317.5,416.3 316.3,415.3 
			315,414.4 313,413.7 310.8,413.5 306.3,413.5 302.6,413.7 298.8,414 295.2,414.3 291.4,414.6 287.2,414.9 282.4,415.2 
			277.2,415.3 273.5,415.3 270.2,415.3 267.6,415.3 265.6,415.3 264.1,415.2 263.6,415.2 263.6,324.2 266.8,324.2 270.8,324.2 
			275.3,324.2 280.9,324.1 285.6,323.7 290.9,323.3 296.8,322.6 303.3,322 306.3,321.8 309.1,321.8 311.5,322 313.3,322.1 
			314.7,322.4 315.1,322.4 317.5,323.3 319.2,324.2 320.3,325.1 320.9,326 321.2,326.6 321.2,326.8 		"/>
		<polyline class="st1" points="272.7,334.7 273.2,334.5 274.5,334.5 276.3,334.5 278.4,334.4 280.5,334.4 282.3,334.4 283.6,334.2 
			284.5,334.2 286.3,334 288.4,333.7 290.9,333.6 293.6,333.3 296.1,333.1 298.5,332.8 300.2,332.7 301.4,332.7 303.8,332.4 
			306.3,332.4 308.5,332.4 310.1,332.4 311.2,332.5 311.7,332.5 311.7,335 311.4,335 310.6,334.8 309,334.8 306.6,334.8 303.6,335 
			299.7,335.4 294.8,335.8 294.2,335.8 293,336 291.1,336.1 288.7,336.4 286.3,336.6 283.8,336.7 281.7,336.9 280.2,336.9 
			278.1,337 276.2,337 274.5,337 273.2,337 272.7,337.2 272.7,334.7 		"/>
		<polyline class="st1" points="273.2,336 273.7,335.8 275,335.8 277,335.8 279.3,335.7 281.8,335.7 284.5,335.5 287,335.1 
			289.3,335 293.2,334.5 296.9,334.2 300.3,333.9 303,333.6 303.8,333.6 304.6,333.6 305.6,333.6 306.8,333.6 308.7,333.7 
			311.2,333.9 		"/>
		<polyline class="st1" points="272.7,341.9 273.2,341.9 274.5,341.9 276.3,341.9 278.4,341.7 280.5,341.7 282.3,341.6 283.6,341.6 
			284.5,341.6 286.3,341.4 288.4,341.1 290.9,341 293.6,340.7 296.1,340.5 298.5,340.2 300.2,340.1 301.4,340.1 303.8,339.8 
			306.3,339.8 308.5,339.8 310.1,339.8 311.2,339.9 311.7,339.9 311.7,342.3 311.4,342.3 310.6,342.2 309,342.2 306.6,342.2 
			303.6,342.3 299.7,342.6 294.8,343.1 294.2,343.1 293,343.2 291.1,343.4 288.7,343.7 286.3,343.8 283.8,344 281.7,344.1 
			280.2,344.1 278.1,344.3 276.2,344.3 274.5,344.3 273.2,344.3 272.7,344.3 272.7,341.9 		"/>
		<polyline class="st1" points="273.2,343.1 273.7,343.1 275,343.1 277,343.1 279.3,342.9 281.8,342.9 284.5,342.8 287,342.5 
			289.3,342.3 293.2,341.9 296.9,341.6 300.3,341.3 303,341 303.8,341 304.6,341 305.6,341 306.8,341 308.7,341.1 311.2,341.3 		"/>
		<polyline class="st1" points="272.7,354.7 273.2,354.7 274.5,354.7 276.3,354.7 278.4,354.5 280.5,354.5 282.3,354.4 283.6,354.4 
			284.5,354.4 286.3,354.2 288.4,353.9 290.9,353.8 293.6,353.5 296.1,353.3 298.5,353 300.2,352.9 301.4,352.9 303.8,352.6 
			306.3,352.6 308.5,352.6 310.1,352.6 311.2,352.7 311.7,352.7 311.7,355.2 311.4,355.2 310.6,355 309,355 306.6,355 303.6,355.2 
			299.7,355.5 294.8,355.9 294.2,355.9 293,356.1 291.1,356.2 288.7,356.5 286.3,356.7 283.8,356.8 281.7,357 280.2,357 
			278.1,357.1 276.2,357.1 274.5,357.1 273.2,357.1 272.7,357.1 272.7,354.7 		"/>
		<polyline class="st1" points="273.2,355.9 273.7,355.9 275,355.9 277,355.9 279.3,355.8 281.8,355.8 284.5,355.6 287,355.3 
			289.3,355.2 293.2,354.7 296.9,354.4 300.3,354.1 303,353.8 303.8,353.8 304.6,353.8 305.6,353.8 306.8,353.8 308.7,353.9 
			311.2,354.1 		"/>
		<polyline class="st1" points="272.7,362.1 273.2,362.1 274.5,362.1 276.3,362.1 278.4,361.9 280.5,361.9 282.3,361.8 283.6,361.8 
			284.5,361.6 286.3,361.5 288.4,361.3 290.9,361.2 293.6,360.9 296.1,360.7 298.5,360.3 300.2,360.2 301.4,360.2 303.8,359.9 
			306.3,359.7 308.5,359.9 310.1,359.9 311.2,360 311.7,360 311.7,362.5 311.4,362.4 310.6,362.4 309,362.4 306.6,362.4 
			303.6,362.5 299.7,362.8 294.8,363.3 294.2,363.3 293,363.4 291.1,363.6 288.7,363.9 286.3,364 283.8,364.2 281.7,364.3 
			280.2,364.3 278.1,364.3 276.2,364.5 274.5,364.5 273.2,364.5 272.7,364.5 272.7,362.1 		"/>
		<polyline class="st1" points="273.2,363.3 273.7,363.3 275,363.3 277,363.3 279.3,363.1 281.8,363 284.5,362.8 287,362.7 
			289.3,362.5 293.2,362.1 296.9,361.8 300.3,361.5 303,361.2 303.8,361.2 304.6,361.2 305.6,361.2 306.8,361.2 308.7,361.3 
			311.2,361.3 		"/>
		<polyline class="st1" points="272.7,374.9 273.2,374.9 274.5,374.9 276.3,374.7 278.4,374.7 280.5,374.7 282.3,374.6 283.6,374.6 
			284.5,374.4 286.3,374.3 288.4,374.1 290.9,373.8 293.6,373.7 296.1,373.4 298.5,373.2 300.2,373 301.4,372.9 303.8,372.7 
			306.3,372.5 308.5,372.5 310.1,372.7 311.2,372.7 311.7,372.9 311.7,375.2 311.4,375.2 310.6,375.2 309,375.2 306.6,375.2 
			303.6,375.4 299.7,375.7 294.8,376.1 294.2,376.1 293,376.3 291.1,376.4 288.7,376.6 286.3,376.9 283.8,377 281.7,377 
			280.2,377.2 278.1,377.2 276.2,377.3 274.5,377.3 273.2,377.3 272.7,377.3 272.7,374.9 		"/>
		<polyline class="st1" points="273.2,376.1 273.7,376.1 275,376.1 277,376.1 279.3,376 281.8,375.8 284.5,375.7 287,375.5 
			289.3,375.2 293.2,374.9 296.9,374.4 300.3,374.3 303,374 303.8,374 304.6,373.8 305.6,373.8 306.8,374 308.7,374 311.2,374.1 		
			"/>
		<polyline class="st1" points="272.7,382.2 273.2,382.2 274.5,382.2 276.3,382.2 278.4,382 280.5,382 282.3,382 283.6,381.9 
			284.5,381.9 286.3,381.7 288.4,381.4 290.9,381.3 293.6,381 296.1,380.8 298.5,380.5 300.2,380.4 301.4,380.4 303.8,380 
			306.3,380 308.5,380 310.1,380 311.2,380.2 311.7,380.2 311.7,382.6 311.4,382.6 310.6,382.5 309,382.5 306.6,382.5 303.6,382.6 
			299.7,382.9 294.8,383.4 294.2,383.4 293,383.5 291.1,383.7 288.7,384 286.3,384.1 283.8,384.3 281.7,384.4 280.2,384.4 
			278.1,384.6 276.2,384.6 274.5,384.6 273.2,384.6 272.7,384.7 272.7,382.2 		"/>
		<polyline class="st1" points="273.2,383.4 273.7,383.4 275,383.4 277,383.4 279.3,383.2 281.8,383.2 284.5,383.1 287,382.8 
			289.3,382.6 293.2,382.2 296.9,381.9 300.3,381.6 303,381.3 303.8,381.3 304.6,381.3 305.6,381.3 306.8,381.3 308.7,381.4 
			311.2,381.6 		"/>
		<polyline class="st1" points="272.7,395.1 273.2,395.1 274.5,395 276.3,395 278.4,395 280.5,394.8 282.3,394.8 283.6,394.7 
			284.5,394.7 286.3,394.5 288.4,394.4 290.9,394.1 293.6,393.8 296.1,393.6 298.5,393.5 300.2,393.2 301.4,393.2 303.8,392.9 
			306.3,392.9 308.5,392.9 310.1,392.9 311.2,393 311.7,393 311.7,395.4 311.4,395.4 310.6,395.3 309,395.3 306.6,395.3 
			303.6,395.4 299.7,395.8 294.8,396.2 294.2,396.4 293,396.4 291.1,396.7 288.7,396.8 286.3,397 283.8,397.1 281.7,397.3 
			280.2,397.3 278.1,397.4 276.2,397.4 274.5,397.4 273.2,397.6 272.7,397.6 272.7,395.1 		"/>
		<polyline class="st1" points="273.2,396.4 273.7,396.4 275,396.2 277,396.2 279.3,396.2 281.8,396.1 284.5,395.9 287,395.8 
			289.3,395.4 293.2,395 296.9,394.7 300.3,394.4 303,394.2 303.8,394.1 304.6,394.1 305.6,394.1 306.8,394.1 308.7,394.2 
			311.2,394.4 		"/>
		<polyline class="st1" points="272.7,402.5 273.2,402.4 274.5,402.4 276.3,402.4 278.4,402.2 280.5,402.2 282.3,402.2 283.6,402.1 
			284.5,402.1 286.3,401.9 288.4,401.6 290.9,401.5 293.6,401.2 296.1,401 298.5,400.7 300.2,400.5 301.4,400.5 303.8,400.2 
			306.3,400.2 308.5,400.2 310.1,400.2 311.2,400.4 311.7,400.4 311.7,402.8 311.4,402.8 310.6,402.7 309,402.7 306.6,402.7 
			303.6,402.8 299.7,403.1 294.8,403.6 294.2,403.7 293,403.7 291.1,403.9 288.7,404.2 286.3,404.3 283.8,404.5 281.7,404.6 
			280.2,404.6 278.1,404.8 276.2,404.8 274.5,404.8 273.2,404.8 272.7,404.9 272.7,402.5 		"/>
		<polyline class="st1" points="273.2,403.7 273.7,403.7 275,403.6 277,403.6 279.3,403.4 281.8,403.4 284.5,403.3 287,403 
			289.3,402.8 293.2,402.4 296.9,402.1 300.3,401.8 303,401.5 303.8,401.5 304.6,401.5 305.6,401.5 306.8,401.5 308.7,401.6 
			311.2,401.8 		"/>
		<polyline class="st1" points="369.3,334.7 368.8,334.5 367.5,334.5 365.7,334.5 363.6,334.4 361.4,334.4 359.7,334.4 358.4,334.2 
			357.5,334.2 355.7,334 353.6,333.7 351.1,333.6 348.4,333.3 345.7,333.1 343.5,332.8 341.8,332.7 340.6,332.7 338.1,332.4 
			335.7,332.4 333.5,332.4 331.7,332.4 330.6,332.5 330.3,332.5 330.3,335 330.5,335 331.4,334.8 333,334.8 335.2,334.8 338.4,335 
			342.3,335.4 347.1,335.8 347.6,335.8 349,336 350.9,336.1 353.3,336.4 355.7,336.6 358.1,336.7 360.3,336.9 361.8,336.9 
			363.7,337 365.8,337 367.5,337 368.8,337 369.3,337.2 369.3,334.7 		"/>
		<polyline class="st1" points="368.7,336 368.1,335.8 366.9,335.8 365,335.8 362.7,335.7 360.2,335.7 357.5,335.5 355,335.1 
			352.6,335 348.7,334.5 344.9,334.2 341.7,333.9 339,333.6 338.2,333.6 337.4,333.6 336.4,333.6 335.2,333.6 333.3,333.7 
			330.8,333.9 		"/>
		<polyline class="st1" points="369.3,341.9 368.8,341.9 367.5,341.9 365.7,341.9 363.6,341.7 361.4,341.7 359.7,341.6 358.4,341.6 
			357.5,341.6 355.7,341.4 353.6,341.1 351.1,341 348.4,340.7 345.7,340.5 343.5,340.2 341.8,340.1 340.6,340.1 338.1,339.8 
			335.7,339.8 333.5,339.8 331.7,339.8 330.6,339.9 330.3,339.9 330.3,342.3 330.5,342.3 331.4,342.2 333,342.2 335.2,342.2 
			338.4,342.3 342.3,342.6 347.1,343.1 347.6,343.1 349,343.2 350.9,343.4 353.3,343.7 355.7,343.8 358.1,344 360.3,344.1 
			361.8,344.1 363.7,344.3 365.8,344.3 367.5,344.3 368.8,344.3 369.3,344.3 369.3,341.9 		"/>
		<polyline class="st1" points="368.7,343.1 368.1,343.1 366.9,343.1 365,343.1 362.7,342.9 360.2,342.9 357.5,342.8 355,342.5 
			352.6,342.3 348.7,341.9 344.9,341.6 341.7,341.3 339,341 338.2,341 337.4,341 336.4,341 335.2,341 333.3,341.1 330.8,341.3 		"/>
		<polyline class="st1" points="369.3,354.7 368.8,354.7 367.5,354.7 365.7,354.7 363.6,354.5 361.4,354.5 359.7,354.4 358.4,354.4 
			357.5,354.4 355.7,354.2 353.6,353.9 351.1,353.8 348.4,353.5 345.7,353.3 343.5,353 341.8,352.9 340.6,352.9 338.1,352.6 
			335.7,352.6 333.5,352.6 331.7,352.6 330.6,352.7 330.3,352.7 330.3,355.2 330.5,355.2 331.4,355 333,355 335.2,355 338.4,355.2 
			342.3,355.5 347.1,355.9 347.6,355.9 349,356.1 350.9,356.2 353.3,356.5 355.7,356.7 358.1,356.8 360.3,357 361.8,357 
			363.7,357.1 365.8,357.1 367.5,357.1 368.8,357.1 369.3,357.1 369.3,354.7 		"/>
		<polyline class="st1" points="368.7,355.9 368.1,355.9 366.9,355.9 365,355.9 362.7,355.8 360.2,355.8 357.5,355.6 355,355.3 
			352.6,355.2 348.7,354.7 344.9,354.4 341.7,354.1 339,353.8 338.2,353.8 337.4,353.8 336.4,353.8 335.2,353.8 333.3,353.9 
			330.8,354.1 		"/>
		<polyline class="st1" points="369.3,362.1 368.8,362.1 367.5,362.1 365.7,362.1 363.6,361.9 361.4,361.9 359.7,361.8 358.4,361.8 
			357.5,361.6 355.7,361.5 353.6,361.3 351.1,361.2 348.4,360.9 345.7,360.7 343.5,360.3 341.8,360.2 340.6,360.2 338.1,359.9 
			335.7,359.7 333.5,359.9 331.7,359.9 330.6,360 330.3,360 330.3,362.5 330.5,362.4 331.4,362.4 333,362.4 335.2,362.4 
			338.4,362.5 342.3,362.8 347.1,363.3 347.6,363.3 349,363.4 350.9,363.6 353.3,363.9 355.7,364 358.1,364.2 360.3,364.3 
			361.8,364.3 363.7,364.3 365.8,364.5 367.5,364.5 368.8,364.5 369.3,364.5 369.3,362.1 		"/>
		<polyline class="st1" points="368.7,363.3 368.1,363.3 366.9,363.3 365,363.3 362.7,363.1 360.2,363 357.5,362.8 355,362.7 
			352.6,362.5 348.7,362.1 344.9,361.8 341.7,361.5 339,361.2 338.2,361.2 337.4,361.2 336.4,361.2 335.2,361.2 333.3,361.3 
			330.8,361.3 		"/>
		<polyline class="st1" points="369.3,374.9 368.8,374.9 367.5,374.9 365.7,374.7 363.6,374.7 361.4,374.7 359.7,374.6 358.4,374.6 
			357.5,374.4 355.7,374.3 353.6,374.1 351.1,373.8 348.4,373.7 345.7,373.4 343.5,373.2 341.8,373 340.6,372.9 338.1,372.7 
			335.7,372.5 333.5,372.5 331.7,372.7 330.6,372.7 330.3,372.9 330.3,375.2 330.5,375.2 331.4,375.2 333,375.2 335.2,375.2 
			338.4,375.4 342.3,375.7 347.1,376.1 347.6,376.1 349,376.3 350.9,376.4 353.3,376.6 355.7,376.9 358.1,377 360.3,377 
			361.8,377.2 363.7,377.2 365.8,377.3 367.5,377.3 368.8,377.3 369.3,377.3 369.3,374.9 		"/>
		<polyline class="st1" points="368.7,376.1 368.1,376.1 366.9,376.1 365,376.1 362.7,376 360.2,375.8 357.5,375.7 355,375.5 
			352.6,375.2 348.7,374.9 344.9,374.4 341.7,374.3 339,374 338.2,374 337.4,373.8 336.4,373.8 335.2,374 333.3,374 330.8,374.1 		
			"/>
		<polyline class="st1" points="369.3,382.2 368.8,382.2 367.5,382.2 365.7,382 363.6,382 361.4,381.9 359.7,381.9 358.4,381.9 
			357.5,381.7 355.7,381.6 353.6,381.4 351.1,381.1 348.4,381 345.7,380.7 343.5,380.5 341.8,380.4 340.6,380.2 338.1,380 
			335.7,379.9 333.5,379.9 331.7,380 330.6,380 330.3,380 330.3,382.5 330.5,382.5 331.4,382.5 333,382.5 335.2,382.5 338.4,382.6 
			342.3,382.9 347.1,383.4 347.6,383.4 349,383.5 350.9,383.7 353.3,383.8 355.7,384 358.1,384.3 360.3,384.3 361.8,384.4 
			363.7,384.4 365.8,384.6 367.5,384.6 368.8,384.6 369.3,384.6 369.3,382.2 		"/>
		<polyline class="st1" points="368.7,383.4 368.1,383.4 366.9,383.4 365,383.2 362.7,383.2 360.2,383.1 357.5,382.9 355,382.8 
			352.6,382.5 348.7,382.2 344.9,381.7 341.7,381.6 339,381.3 338.2,381.1 337.4,381.1 336.4,381.1 335.2,381.3 333.3,381.3 
			330.8,381.4 		"/>
		<polyline class="st1" points="369.3,395.1 368.8,395.1 367.5,395 365.7,395 363.6,395 361.4,394.8 359.7,394.8 358.4,394.7 
			357.5,394.7 355.7,394.5 353.6,394.4 351.1,394.1 348.4,393.8 345.7,393.6 343.5,393.5 341.8,393.2 340.6,393.2 338.1,392.9 
			335.7,392.9 333.5,392.9 331.7,392.9 330.6,393 330.3,393 330.3,395.4 330.5,395.4 331.4,395.3 333,395.3 335.2,395.3 
			338.4,395.4 342.3,395.8 347.1,396.2 347.6,396.4 349,396.4 350.9,396.7 353.3,396.8 355.7,397 358.1,397.1 360.3,397.3 
			361.8,397.3 363.7,397.4 365.8,397.4 367.5,397.4 368.8,397.6 369.3,397.6 369.3,395.1 		"/>
		<polyline class="st1" points="368.7,396.4 368.1,396.4 366.9,396.2 365,396.2 362.7,396.2 360.2,396.1 357.5,395.9 355,395.8 
			352.6,395.4 348.7,395 344.9,394.7 341.7,394.4 339,394.2 338.2,394.1 337.4,394.1 336.4,394.1 335.2,394.1 333.3,394.2 
			330.8,394.4 		"/>
		<polyline class="st1" points="369.3,402.5 368.8,402.4 367.5,402.4 365.7,402.4 363.6,402.2 361.4,402.2 359.7,402.2 358.4,402.1 
			357.5,402.1 355.7,401.9 353.6,401.6 351.1,401.5 348.4,401.2 345.7,401 343.5,400.7 341.8,400.5 340.6,400.5 338.1,400.2 
			335.7,400.2 333.5,400.2 331.7,400.2 330.6,400.4 330.3,400.4 330.3,402.8 330.5,402.8 331.4,402.7 333,402.7 335.2,402.7 
			338.4,402.8 342.3,403.1 347.1,403.6 347.6,403.7 349,403.7 350.9,403.9 353.3,404.2 355.7,404.3 358.1,404.5 360.3,404.6 
			361.8,404.6 363.7,404.8 365.8,404.8 367.5,404.8 368.8,404.8 369.3,404.9 369.3,402.5 		"/>
		<polyline class="st1" points="368.7,403.7 368.1,403.7 366.9,403.6 365,403.6 362.7,403.4 360.2,403.4 357.5,403.3 355,403 
			352.6,402.8 348.7,402.4 344.9,402.1 341.7,401.8 339,401.5 338.2,401.5 337.4,401.5 336.4,401.5 335.2,401.5 333.3,401.6 
			330.8,401.8 		"/>
		<path class="st2" d="M323,141.8l9.4,0.2l9.4,0.8l9.1,1l9.1,1.5l1.2,0.3l8.8,2l8.8,2.4l8.5,2.8l8.4,3.1l8.2,3.5l8,4l7.7,4.2
			l7.4,4.7l1,0.6l7.2,5l6.9,5.2l6.6,5.6l6.4,5.9l6.1,6.2l5.8,6.3l5.4,6.8l5.2,7.1l0.6,1l4.9,7.3l4.4,7.5l4,7.8l3.6,8l3.3,8.1
			l2.8,8.3l2.5,8.6l2.1,8.6l0.3,1.2l1.5,8.9l1.1,8.8l0.7,9.2l0.4,9.2l-0.4,9.2l-0.7,9.2l-1.1,8.9l-1.5,8.9l-0.3,1.2l-2.1,8.6
			l-2.5,8.6l-2.8,8.2l-3.3,8.2l-3.6,7.9l-4,7.9l-4.4,7.5l-4.9,7.2l-0.6,1.1l-5.2,7l-5.4,6.8l-5.8,6.5l-6.1,6.2l-6.4,5.9l-6.6,5.6
			l-6.9,5.1l-7.2,5l-1,0.7l-7.4,4.7l-7.7,4.2l-8,3.9l-8.2,3.5l-8.4,3.2l-8.5,2.7l-8.8,2.4l-8.8,2l-1.2,0.3l-9.1,1.5l-9.1,1.1
			l-9.4,0.8l-9.4,0.3l-9.4-0.3l-9.4-0.8l-9.1-1.1l-9.1-1.5l-1.2-0.3l-8.8-2l-8.8-2.4l-8.5-2.7l-8.3-3.2l-8.2-3.5l-8.1-3.9l-7.7-4.2
			l-7.3-4.7l-1.1-0.7l-7.2-5l-6.9-5.1l-6.5-5.6l-6.4-5.9l-6.2-6.2l-5.8-6.5l-5.3-6.8l-5.2-7l-0.7-1.1l-4.9-7.2l-4.3-7.5l-4.1-7.9
			l-3.5-7.9l-3.3-8.2l-2.9-8.2l-2.5-8.6l-2.1-8.6l-0.3-1.2l-1.5-8.9l-1-8.9l-0.8-9.2l-0.2-9.2l0.2-9.2l0.8-9.2l1-8.8l1.5-8.9
			l0.3-1.2l2.1-8.6l2.5-8.6l2.9-8.3l3.3-8.1l3.5-8l4.1-7.8l4.3-7.5l4.9-7.3l0.7-1l5.2-7.1l5.3-6.8l5.8-6.3l6.2-6.2l6.4-5.9l6.5-5.6
			l6.9-5.2l7.2-5l1.1-0.6l7.3-4.7l7.7-4.2l8.1-4l8.2-3.5l8.3-3.1l8.5-2.8l8.8-2.4l8.8-2l1.2-0.3l9.1-1.5l9.1-1l9.4-0.8L323,141.8z
			 M323,147.9l-9.4,0.1l-9.4,0.8l-9.1,1l-8,1.4l-8.8,2l-8.8,2.4l-8.5,2.7l-8.4,3.2l-8.2,3.5l-8,3.9l-7.7,4.3l-6.6,4.2l-7,4.8
			l-6.9,5.2l-6.6,5.6l-6.4,5.9l-6.1,6.3l-5.8,6.4l-5.4,6.7l-5,7l-4.4,6.3l-4.3,7.6l-4.1,7.8l-3.6,8l-3.3,8.1l-2.8,8.3l-2.5,8.6
			l-2.1,8.5l-1.4,7.9l-1,8.8l-0.8,9.2l-0.1,9.2l0.1,9.2l0.8,9.2l1,8.9l1.4,7.8l2.1,8.6l2.5,8.6l2.8,8.3l3.3,8.1l3.6,8l4.1,7.8
			l4.3,7.5l4.4,6.5l5,6.9l5.4,6.8l5.8,6.4l6.1,6.2l6.4,6l6.6,5.6l6.9,5.1l7,4.9l6.6,4.2l7.7,4.2l8,4l8.2,3.5l8.4,3.1l8.5,2.8
			l8.8,2.4l8.8,2l8,1.3l9.1,1.1l9.4,0.7l9.4,0.3l9.4-0.3l9.4-0.7l9.1-1.1l8.1-1.3l8.8-2l8.8-2.4l8.5-2.8l8.3-3.1l8.2-3.5l8-4
			l7.8-4.2l6.5-4.2l7.1-4.9l6.8-5.1l6.6-5.6l6.4-6l6.2-6.2l5.8-6.4l5.3-6.8l5.1-6.9l4.3-6.5l4.4-7.5l4-7.8l3.6-8l3.3-8.1l2.8-8.3
			l2.6-8.6l1.9-8.6l1.4-7.8l1.1-8.9l0.7-9.2l0.3-9.2l-0.3-9.2l-0.7-9.2l-1.1-8.8l-1.4-7.9l-1.9-8.5l-2.6-8.6l-2.8-8.3l-3.3-8.1
			l-3.6-8l-4-7.8l-4.4-7.6l-4.3-6.3l-5.1-7l-5.3-6.7l-5.8-6.4l-6.2-6.3l-6.4-5.9l-6.6-5.6l-6.8-5.2l-7.1-4.8l-6.5-4.2l-7.8-4.3
			l-8-3.9l-8.2-3.5l-8.3-3.2l-8.5-2.7l-8.8-2.4l-8.8-2l-8.1-1.4l-9.1-1l-9.4-0.8L323,147.9z"/>
		<path class="st3" d="M323,141.8l9.4,0.2l9.4,0.8l9.1,1l9.1,1.5l1.2,0.3l8.8,2l8.8,2.4l8.5,2.8l8.4,3.1l8.2,3.5l8,4l7.7,4.2
			l7.4,4.7l1,0.6l7.2,5l6.9,5.2l6.6,5.6l6.4,5.9l6.1,6.2l5.8,6.3l5.4,6.8l5.2,7.1l0.6,1l4.9,7.3l4.4,7.5l4,7.8l3.6,8l3.3,8.1
			l2.8,8.3l2.5,8.6l2.1,8.6l0.3,1.2l1.5,8.9l1.1,8.8l0.7,9.2l0.4,9.2l-0.4,9.2l-0.7,9.2l-1.1,8.9l-1.5,8.9l-0.3,1.2l-2.1,8.6
			l-2.5,8.6l-2.8,8.2l-3.3,8.2l-3.6,7.9l-4,7.9l-4.4,7.5l-4.9,7.2l-0.6,1.1l-5.2,7l-5.4,6.8l-5.8,6.5l-6.1,6.2l-6.4,5.9l-6.6,5.6
			l-6.9,5.1l-7.2,5l-1,0.7l-7.4,4.7l-7.7,4.2l-8,3.9l-8.2,3.5l-8.4,3.2l-8.5,2.7l-8.8,2.4l-8.8,2l-1.2,0.3l-9.1,1.5l-9.1,1.1
			l-9.4,0.8l-9.4,0.3l-9.4-0.3l-9.4-0.8l-9.1-1.1l-9.1-1.5l-1.2-0.3l-8.8-2l-8.8-2.4l-8.5-2.7l-8.3-3.2l-8.2-3.5l-8.1-3.9l-7.7-4.2
			l-7.3-4.7l-1.1-0.7l-7.2-5l-6.9-5.1l-6.5-5.6l-6.4-5.9l-6.2-6.2l-5.8-6.5l-5.3-6.8l-5.2-7l-0.7-1.1l-4.9-7.2l-4.3-7.5l-4.1-7.9
			l-3.5-7.9l-3.3-8.2l-2.9-8.2l-2.5-8.6l-2.1-8.6l-0.3-1.2l-1.5-8.9l-1-8.9l-0.8-9.2l-0.2-9.2l0.2-9.2l0.8-9.2l1-8.8l1.5-8.9
			l0.3-1.2l2.1-8.6l2.5-8.6l2.9-8.3l3.3-8.1l3.5-8l4.1-7.8l4.3-7.5l4.9-7.3l0.7-1l5.2-7.1l5.3-6.8l5.8-6.3l6.2-6.2l6.4-5.9l6.5-5.6
			l6.9-5.2l7.2-5l1.1-0.6l7.3-4.7l7.7-4.2l8.1-4l8.2-3.5l8.3-3.1l8.5-2.8l8.8-2.4l8.8-2l1.2-0.3l9.1-1.5l9.1-1l9.4-0.8L323,141.8z
			 M323,147.9l-9.4,0.1l-9.4,0.8l-9.1,1l-8,1.4l-8.8,2l-8.8,2.4l-8.5,2.7l-8.4,3.2l-8.2,3.5l-8,3.9l-7.7,4.3l-6.6,4.2l-7,4.8
			l-6.9,5.2l-6.6,5.6l-6.4,5.9l-6.1,6.3l-5.8,6.4l-5.4,6.7l-5,7l-4.4,6.3l-4.3,7.6l-4.1,7.8l-3.6,8l-3.3,8.1l-2.8,8.3l-2.5,8.6
			l-2.1,8.5l-1.4,7.9l-1,8.8l-0.8,9.2l-0.1,9.2l0.1,9.2l0.8,9.2l1,8.9l1.4,7.8l2.1,8.6l2.5,8.6l2.8,8.3l3.3,8.1l3.6,8l4.1,7.8
			l4.3,7.5l4.4,6.5l5,6.9l5.4,6.8l5.8,6.4l6.1,6.2l6.4,6l6.6,5.6l6.9,5.1l7,4.9l6.6,4.2l7.7,4.2l8,4l8.2,3.5l8.4,3.1l8.5,2.8
			l8.8,2.4l8.8,2l8,1.3l9.1,1.1l9.4,0.7l9.4,0.3l9.4-0.3l9.4-0.7l9.1-1.1l8.1-1.3l8.8-2l8.8-2.4l8.5-2.8l8.3-3.1l8.2-3.5l8-4
			l7.8-4.2l6.5-4.2l7.1-4.9l6.8-5.1l6.6-5.6l6.4-6l6.2-6.2l5.8-6.4l5.3-6.8l5.1-6.9l4.3-6.5l4.4-7.5l4-7.8l3.6-8l3.3-8.1l2.8-8.3
			l2.6-8.6l1.9-8.6l1.4-7.8l1.1-8.9l0.7-9.2l0.3-9.2l-0.3-9.2l-0.7-9.2l-1.1-8.8l-1.4-7.9l-1.9-8.5l-2.6-8.6l-2.8-8.3l-3.3-8.1
			l-3.6-8l-4-7.8l-4.4-7.6l-4.3-6.3l-5.1-7l-5.3-6.7l-5.8-6.4l-6.2-6.3l-6.4-5.9l-6.6-5.6l-6.8-5.2l-7.1-4.8l-6.5-4.2l-7.8-4.3
			l-8-3.9l-8.2-3.5l-8.3-3.2l-8.5-2.7l-8.8-2.4l-8.8-2l-8.1-1.4l-9.1-1l-9.4-0.8L323,147.9z"/>
		<polyline class="st4" points="513.6,321.5 513,335 511.6,348.2 509.4,361 506,373.5 501.9,385.8 497,397.4 491.5,408.9 
			484.9,419.7 477.9,430.3 470.1,440.2 461.6,449.7 452.5,458.5 442.8,466.8 432.6,474.5 421.8,481.3 410.6,487.6 398.8,493.1 
			386.8,498 374.2,501.9 361.4,505 348.2,507.2 334.7,508.6 320.9,509.1 307.1,508.6 293.6,507.2 280.5,505 267.6,501.9 255,498 
			243,493.1 231.2,487.6 220,481.3 209.3,474.5 199,466.8 189.3,458.5 180.2,449.7 171.7,440.2 163.9,430.3 156.8,419.7 
			150.4,408.9 144.7,397.4 139.8,385.8 135.7,373.5 132.5,361 130.2,348.2 128.7,335 128.3,321.5 128.7,308.1 130.2,295 
			132.5,282.1 135.7,269.6 139.8,257.4 144.7,245.6 150.4,234.2 156.8,223.4 163.9,212.9 171.7,202.9 180.2,193.4 189.3,184.5 
			199,176.4 209.3,168.7 220,161.9 231.2,155.6 243,150.1 255,145.1 267.6,141.2 280.5,138.2 293.6,135.8 307.1,134.4 320.9,134 
			334.7,134.4 348.2,135.8 361.4,138.2 374.2,141.2 386.8,145.1 398.8,150.1 410.6,155.6 421.8,161.9 432.6,168.7 442.8,176.4 
			452.5,184.5 461.6,193.4 470.1,202.9 477.9,212.9 484.9,223.4 491.5,234.2 497,245.6 501.9,257.4 506,269.6 509.4,282.1 
			511.6,295 513,308.1 513.6,321.5 		"/>
		<polyline class="st4" points="577.7,321.5 577.3,336.9 575.8,351.8 573.4,366.5 570.3,381 566.4,395 561.5,408.7 556.1,422.2 
			549.7,435.1 542.5,447.7 534.9,459.9 526.4,471.5 517.3,482.7 507.6,493.2 497.3,503.3 486.4,512.8 474.9,521.6 462.9,529.9 
			450.5,537.4 437.6,544.4 424.3,550.5 410.5,556 396.4,560.6 382,564.4 367,567.6 352,569.7 336.6,571.1 320.9,571.5 305.2,571.1 
			289.9,569.7 274.8,567.6 259.9,564.4 245.4,560.6 231.4,556 217.5,550.5 204.2,544.4 191.4,537.4 178.8,529.9 166.9,521.6 
			155.4,512.8 144.6,503.3 134.2,493.2 124.5,482.7 115.4,471.5 106.9,459.9 99.3,447.7 92,435.1 85.8,422.2 80.1,408.7 75.4,395 
			71.4,381 68.2,366.5 66,351.8 64.6,336.9 64.1,321.5 64.6,306.3 66,291.3 68.2,276.7 71.4,262.2 75.4,248.2 80.1,234.3 
			85.8,220.9 92,207.9 99.3,195.4 106.9,183.2 115.4,171.6 124.5,160.4 134.2,149.9 144.6,139.8 155.4,130.4 166.9,121.5 
			178.8,113.3 191.4,105.8 204.2,98.8 217.5,92.6 231.4,87.2 245.4,82.5 259.9,78.6 274.8,75.6 289.9,73.4 305.2,72 320.9,71.5 
			336.6,72 352,73.4 367,75.6 382,78.6 396.4,82.5 410.5,87.2 424.3,92.6 437.6,98.8 450.5,105.8 462.9,113.3 474.9,121.5 
			486.4,130.4 497.3,139.8 507.6,149.9 517.3,160.4 526.4,171.6 534.9,183.2 542.5,195.4 549.7,207.9 556.1,220.9 561.5,234.3 
			566.4,248.2 570.3,262.2 573.4,276.7 575.8,291.3 577.3,306.3 577.7,321.5 		"/>
		<path class="st2" d="M316.6,78.9h12.8l6.3,0.3l6.4,0.3l6.3,0.6l12.4,1.5l12.2,2.1l1.2,0.2l12,2.7l11.8,3.2l11.6,3.8l11.3,4.2l11,5
			l10.8,5.3l10.4,5.7l10,6.5l0.9,0.6l9.8,6.7l9.4,7.2l9.1,7.4l8.6,8.1l8.1,8.5l7.9,8.7l7.3,9.2l6.9,9.5l0.6,1l6.6,9.8l5.9,10.1
			l5.5,10.6l5,10.7l4.5,11l3.8,11.2l3.3,11.6l2.9,11.6l0.1,1.2l2.2,11.9l1.7,12.1l0.6,6l0.3,6.4l0.3,6l0.1,6.2l-0.1,6.2l-0.3,6.3
			l-0.3,6.1l-0.6,6.1l-1.7,12l-2.2,12l-0.1,1.2l-2.9,11.6l-3.3,11.6l-3.8,11.2l-4.5,11l-5,10.7l-5.5,10.5l-5.9,10.1l-6.6,9.8
			l-0.6,1.1l-6.9,9.5l-7.3,9.2l-7.9,8.7l-8.1,8.4l-8.6,8.2l-9.1,7.5l-9.4,7.2l-9.8,6.9l-0.9,0.6l-10,6.3l-10.4,5.8l-10.8,5.3
			l-11,4.8l-11.3,4.3l-11.6,3.8l-11.8,3.1l-12,2.8l-1.2,0.1l-12.2,2.1l-12.4,1.6l-6.3,0.6l-6.4,0.3l-6.3,0.3l-6.4,0.1l-6.4-0.1
			l-6.3-0.3l-6.4-0.3l-6.3-0.6l-12.3-1.6l-12.3-2.1l-1.2-0.1l-11.9-2.8l-12-3.1l-11.4-3.8l-11.4-4.3l-11-4.8l-10.9-5.3l-10.3-5.8
			l-10-6.3l-1-0.6l-9.8-6.9l-9.4-7.2l-8.9-7.5l-8.7-8.2l-8.3-8.4l-7.6-8.7l-7.4-9.2l-6.8-9.5l-0.7-1.1l-6.5-9.8l-6-10.1l-5.5-10.5
			L91.1,419l-4.3-11l-3.9-11.2l-3.3-11.6l-2.8-11.6l-0.2-1.2l-2.2-12l-1.5-12l-0.6-6.1l-0.3-6.1l-0.3-6.3v-12.5l0.3-6l0.3-6.4l0.6-6
			l1.5-12.1l2.2-11.9l0.2-1.2l2.8-11.6l3.3-11.6l3.9-11.2l4.3-11l5.1-10.7l5.5-10.6l6-10.1l6.5-9.8l0.7-1l6.8-9.5l7.4-9.2l7.6-8.7
			l8.3-8.5l8.7-8.1l8.9-7.4l9.4-7.2l9.8-6.7l1-0.6l10-6.5l10.3-5.7l10.9-5.3l11-5l11.4-4.2l11.4-3.8l12-3.2l11.9-2.7l1.2-0.2
			l12.3-2.1l12.3-1.5l6.3-0.6l6.4-0.3L316.6,78.9z M316.6,84.8l-6.3,0.3l-6.4,0.3l-6.3,0.6l-12.3,1.5L273,89.7l-10.9,2.5l-11.9,3.1
			l-11.5,3.8l-11.3,4.3l-11,4.8l-10.9,5.4l-10.3,5.8l-9.3,6l-9.5,6.5l-9.4,7.2l-9,7.5l-8.6,8.1l-8.4,8.4l-7.7,8.7l-7.3,9.2l-6.7,9.4
			l-6.2,9l-5.9,10.1l-5.5,10.6l-5.1,10.7l-4.3,11l-3.9,11.1l-3.3,11.6l-2.6,10.6l-2.2,11.9l-1.6,12.1l-0.6,6l-0.3,6.4l-0.3,6v12.5
			l0.3,6.3l0.3,6.1l0.6,6.1l1.6,12l2.2,12l2.6,10.5l3.3,11.6l3.9,11.2l4.3,11l5.1,10.7l5.5,10.5l5.9,10.1l6.2,9.1l6.7,9.3l7.3,9.2
			l7.7,8.7l8.4,8.5l8.6,8.1l9,7.5l9.4,7.3l9.4,6.7l9.4,5.8l10.3,5.7l10.9,5.3l11,4.9l11.3,4.2l11.5,3.8l11.9,3.2l10.9,2.4l12.3,2.1
			l12.3,1.6l6.3,0.6l6.4,0.3l6.3,0.3l6.4,0.1l6.4-0.1l6.3-0.3l6.4-0.3l6.3-0.6l12.4-1.6l12.2-2.1l10.9-2.4l11.8-3.2l11.6-3.8
			l11.3-4.2l11.1-4.9l10.6-5.3l10.4-5.7l9-5.6l9.7-6.9l9.4-7.3l9.1-7.5l8.7-8.1l8-8.5l7.9-8.7l7.5-9.2l6.7-9.3l6.1-9.1l6-10.1
			l5.5-10.5l4.9-10.7l4.6-11l3.9-11.2l3.3-11.6l2.5-10.5l2.2-12l1.6-12l0.6-6.1l0.4-6.1l0.3-6.3l0.1-6.2l-0.1-6.2l-0.3-6l-0.4-6.4
			l-0.6-6l-1.6-12.1l-2.2-11.9l-2.5-10.6l-3.3-11.6l-3.9-11.1l-4.6-11l-4.9-10.7l-5.5-10.6l-6-10.1l-6.1-9l-6.7-9.4l-7.5-9.2
			l-7.9-8.7l-8-8.4l-8.7-8.1l-9.1-7.5l-9.4-7.2l-9.7-6.7l-9-5.7l-10.4-5.8l-10.6-5.4l-11.1-4.8l-11.3-4.3l-11.6-3.8l-11.8-3.1
			L373,89.7l-12.2-2.2L348.4,86l-6.3-0.6l-6.4-0.3l-6.3-0.3H316.6z"/>
		<path class="st3" d="M316.6,78.9h12.8l6.3,0.3l6.4,0.3l6.3,0.6l12.4,1.5l12.2,2.1l1.2,0.2l12,2.7l11.8,3.2l11.6,3.8l11.3,4.2l11,5
			l10.8,5.3l10.4,5.7l10,6.5l0.9,0.6l9.8,6.7l9.4,7.2l9.1,7.4l8.6,8.1l8.1,8.5l7.9,8.7l7.3,9.2l6.9,9.5l0.6,1l6.6,9.8l5.9,10.1
			l5.5,10.6l5,10.7l4.5,11l3.8,11.2l3.3,11.6l2.9,11.6l0.1,1.2l2.2,11.9l1.7,12.1l0.6,6l0.3,6.4l0.3,6l0.1,6.2l-0.1,6.2l-0.3,6.3
			l-0.3,6.1l-0.6,6.1l-1.7,12l-2.2,12l-0.1,1.2l-2.9,11.6l-3.3,11.6l-3.8,11.2l-4.5,11l-5,10.7l-5.5,10.5l-5.9,10.1l-6.6,9.8
			l-0.6,1.1l-6.9,9.5l-7.3,9.2l-7.9,8.7l-8.1,8.4l-8.6,8.2l-9.1,7.5l-9.4,7.2l-9.8,6.9l-0.9,0.6l-10,6.3l-10.4,5.8l-10.8,5.3
			l-11,4.8l-11.3,4.3l-11.6,3.8l-11.8,3.1l-12,2.8l-1.2,0.1l-12.2,2.1l-12.4,1.6l-6.3,0.6l-6.4,0.3l-6.3,0.3l-6.4,0.1l-6.4-0.1
			l-6.3-0.3l-6.4-0.3l-6.3-0.6l-12.3-1.6l-12.3-2.1l-1.2-0.1l-11.9-2.8l-12-3.1l-11.4-3.8l-11.4-4.3l-11-4.8l-10.9-5.3l-10.3-5.8
			l-10-6.3l-1-0.6l-9.8-6.9l-9.4-7.2l-8.9-7.5l-8.7-8.2l-8.3-8.4l-7.6-8.7l-7.4-9.2l-6.8-9.5l-0.7-1.1l-6.5-9.8l-6-10.1l-5.5-10.5
			L91.1,419l-4.3-11l-3.9-11.2l-3.3-11.6l-2.8-11.6l-0.2-1.2l-2.2-12l-1.5-12l-0.6-6.1l-0.3-6.1l-0.3-6.3v-12.5l0.3-6l0.3-6.4l0.6-6
			l1.5-12.1l2.2-11.9l0.2-1.2l2.8-11.6l3.3-11.6l3.9-11.2l4.3-11l5.1-10.7l5.5-10.6l6-10.1l6.5-9.8l0.7-1l6.8-9.5l7.4-9.2l7.6-8.7
			l8.3-8.5l8.7-8.1l8.9-7.4l9.4-7.2l9.8-6.7l1-0.6l10-6.5l10.3-5.7l10.9-5.3l11-5l11.4-4.2l11.4-3.8l12-3.2l11.9-2.7l1.2-0.2
			l12.3-2.1l12.3-1.5l6.3-0.6l6.4-0.3L316.6,78.9z M316.6,84.8l-6.3,0.3l-6.4,0.3l-6.3,0.6l-12.3,1.5L273,89.7l-10.9,2.5l-11.9,3.1
			l-11.5,3.8l-11.3,4.3l-11,4.8l-10.9,5.4l-10.3,5.8l-9.3,6l-9.5,6.5l-9.4,7.2l-9,7.5l-8.6,8.1l-8.4,8.4l-7.7,8.7l-7.3,9.2l-6.7,9.4
			l-6.2,9l-5.9,10.1l-5.5,10.6l-5.1,10.7l-4.3,11l-3.9,11.1l-3.3,11.6l-2.6,10.6l-2.2,11.9l-1.6,12.1l-0.6,6l-0.3,6.4l-0.3,6v12.5
			l0.3,6.3l0.3,6.1l0.6,6.1l1.6,12l2.2,12l2.6,10.5l3.3,11.6l3.9,11.2l4.3,11l5.1,10.7l5.5,10.5l5.9,10.1l6.2,9.1l6.7,9.3l7.3,9.2
			l7.7,8.7l8.4,8.5l8.6,8.1l9,7.5l9.4,7.3l9.4,6.7l9.4,5.8l10.3,5.7l10.9,5.3l11,4.9l11.3,4.2l11.5,3.8l11.9,3.2l10.9,2.4l12.3,2.1
			l12.3,1.6l6.3,0.6l6.4,0.3l6.3,0.3l6.4,0.1l6.4-0.1l6.3-0.3l6.4-0.3l6.3-0.6l12.4-1.6l12.2-2.1l10.9-2.4l11.8-3.2l11.6-3.8
			l11.3-4.2l11.1-4.9l10.6-5.3l10.4-5.7l9-5.6l9.7-6.9l9.4-7.3l9.1-7.5l8.7-8.1l8-8.5l7.9-8.7l7.5-9.2l6.7-9.3l6.1-9.1l6-10.1
			l5.5-10.5l4.9-10.7l4.6-11l3.9-11.2l3.3-11.6l2.5-10.5l2.2-12l1.6-12l0.6-6.1l0.4-6.1l0.3-6.3l0.1-6.2l-0.1-6.2l-0.3-6l-0.4-6.4
			l-0.6-6l-1.6-12.1l-2.2-11.9l-2.5-10.6l-3.3-11.6l-3.9-11.1l-4.6-11l-4.9-10.7l-5.5-10.6l-6-10.1l-6.1-9l-6.7-9.4l-7.5-9.2
			l-7.9-8.7l-8-8.4l-8.7-8.1l-9.1-7.5l-9.4-7.2l-9.7-6.7l-9-5.7l-10.4-5.8l-10.6-5.4l-11.1-4.8l-11.3-4.3l-11.6-3.8l-11.8-3.1
			L373,89.7l-12.2-2.2L348.4,86l-6.3-0.6l-6.4-0.3l-6.3-0.3H316.6z"/>
		<rect x="211.7" y="298.4" class="st2" width="222.8" height="5.9"/>
		<rect x="211.7" y="298.4" class="st3" width="222.8" height="5.9"/>
		<path class="st2" d="M199.9,195.2H446V360l-0.2,3.9l-0.3,4l-0.3,3.7l-0.6,3.8l-0.3,1.2l-1.5,7.4l-2.2,7.4l-2.7,7.1l-3.1,6.9
			l-3.8,6.7l-3.9,6.3l-0.6,1l-4.3,6.1l-4.8,5.9l-5,5.7l-5.2,5.5l-5.4,5.1l-5.5,5l-5.5,4.7l-5.7,4.6l-5.6,4.2l-5.6,4l-5.5,3.8l-1,0.6
			l-5.4,3.4l-5.2,3.2l-4.9,2.9l-4.8,2.7l-4.3,2.5l-4.1,2.1l-3.5,1.8l-3.2,1.7l-2.8,1.3l-2.2,0.9l-2.9,1.4l-1.2,0.4l-1.2-0.4
			l-2.8-1.4l-2.2-0.9l-6-2.9l-3.6-1.8l-4-2.1l-4.4-2.4l-4.8-2.7l-5-3.1l-5.2-3.2l-5.4-3.4l-1-0.6l-5.5-3.8l-5.6-4l-5.6-4.2l-5.7-4.6
			l-5.5-4.8l-5.5-5l-5.5-5.3l-5.2-5.6l-4.9-5.8l-4.8-6l-5-7.4l-4.1-6.6l-3.6-6.8l-3.3-7.1l-2.6-7.3l-2.3-7.7l-1.6-7.7l-0.3-1.2
			l-0.6-3.9l-0.3-4l-0.3-4.1V195.2z M206,201.1v160.2l0.3,4.1l0.3,4l0.5,2.9l1.5,7.6l2.2,7.7l2.7,7.4l3.3,7l3.6,6.8l4,6.6l3.8,5.3
			l4.7,6.1l4.9,5.7l5.2,5.6l5.5,5.3l5.6,5l5.5,4.9l5.6,4.5l5.7,4.3l5.5,3.9l5.5,3.8l4.4,2.9l5.2,3.2l5,3l4.8,2.7l4.3,2.5l4.1,2.1
			l3.6,1.8l5.9,2.9l2.3,0.9l1.7,0.9l1.8-0.9l2.2-0.9l2.8-1.4l3.2-1.7l3.6-1.8l4-2.1l4.4-2.4l4.6-2.8l4.9-2.8l5.2-3.2l4.4-2.9
			l5.5-3.8l5.5-3.9l5.7-4.3l5.6-4.5l5.5-4.7l5.6-5l5.3-5.1l5.2-5.5l5.1-5.8l4.7-5.9l3.9-5.4l3.8-5.9l3.7-6.8l3.1-6.9l2.7-7.1
			l2.2-7.4l1.7-7.3l0.4-2.8l0.3-3.7l0.3-4l0.2-3.9V201.1H206z"/>
		<path class="st3" d="M199.9,195.2H446V360l-0.2,3.9l-0.3,4l-0.3,3.7l-0.6,3.8l-0.3,1.2l-1.5,7.4l-2.2,7.4l-2.7,7.1l-3.1,6.9
			l-3.8,6.7l-3.9,6.3l-0.6,1l-4.3,6.1l-4.8,5.9l-5,5.7l-5.2,5.5l-5.4,5.1l-5.5,5l-5.5,4.7l-5.7,4.6l-5.6,4.2l-5.6,4l-5.5,3.8l-1,0.6
			l-5.4,3.4l-5.2,3.2l-4.9,2.9l-4.8,2.7l-4.3,2.5l-4.1,2.1l-3.5,1.8l-3.2,1.7l-2.8,1.3l-2.2,0.9l-2.9,1.4l-1.2,0.4l-1.2-0.4
			l-2.8-1.4l-2.2-0.9l-6-2.9l-3.6-1.8l-4-2.1l-4.4-2.4l-4.8-2.7l-5-3.1l-5.2-3.2l-5.4-3.4l-1-0.6l-5.5-3.8l-5.6-4l-5.6-4.2l-5.7-4.6
			l-5.5-4.8l-5.5-5l-5.5-5.3l-5.2-5.6l-4.9-5.8l-4.8-6l-5-7.4l-4.1-6.6l-3.6-6.8l-3.3-7.1l-2.6-7.3l-2.3-7.7l-1.6-7.7l-0.3-1.2
			l-0.6-3.9l-0.3-4l-0.3-4.1V195.2z M206,201.1v160.2l0.3,4.1l0.3,4l0.5,2.9l1.5,7.6l2.2,7.7l2.7,7.4l3.3,7l3.6,6.8l4,6.6l3.8,5.3
			l4.7,6.1l4.9,5.7l5.2,5.6l5.5,5.3l5.6,5l5.5,4.9l5.6,4.5l5.7,4.3l5.5,3.9l5.5,3.8l4.4,2.9l5.2,3.2l5,3l4.8,2.7l4.3,2.5l4.1,2.1
			l3.6,1.8l5.9,2.9l2.3,0.9l1.7,0.9l1.8-0.9l2.2-0.9l2.8-1.4l3.2-1.7l3.6-1.8l4-2.1l4.4-2.4l4.6-2.8l4.9-2.8l5.2-3.2l4.4-2.9
			l5.5-3.8l5.5-3.9l5.7-4.3l5.6-4.5l5.5-4.7l5.6-5l5.3-5.1l5.2-5.5l5.1-5.8l4.7-5.9l3.9-5.4l3.8-5.9l3.7-6.8l3.1-6.9l2.7-7.1
			l2.2-7.4l1.7-7.3l0.4-2.8l0.3-3.7l0.3-4l0.2-3.9V201.1H206z"/>
		<polyline class="st4" points="432.3,356.7 432.3,353.2 432.3,348.9 432.3,343.7 432.3,337.9 432.3,331.3 432.3,324.4 432.3,316.8 
			432.3,308.9 432.3,300.8 432.3,292.5 432.3,284 432.3,275.6 432.3,267.2 432.3,259.1 432.3,251.2 432.3,243.5 432.3,236.4 
			432.3,229.6 432.3,223.6 432.3,218.2 432.3,213.6 432.3,209.9 432.3,207.2 432.3,205.3 432.3,204.7 208.9,204.7 208.9,205.3 
			208.9,207 208.9,213.5 208.9,217.9 208.9,223.3 208.9,322 208.9,328.9 208.9,335.4 208.9,346.3 208.9,350.6 208.9,353.9 
			209.4,362.8 210.6,371.3 212.6,379.6 215.1,387.6 218.4,395.1 222.3,402.7 226.5,409.6 231.2,416.4 236.2,422.9 241.5,429.1 
			247.2,435 253,440.5 259,445.8 264.9,450.8 270.9,455.3 276.9,459.6 282.6,463.6 288.3,467.3 293.6,470.6 298.8,473.6 
			303.5,476.3 307.8,478.6 311.5,480.5 314.8,482 317.3,483.3 319.3,484.2 320.5,484.8 320.9,484.9 321.4,484.8 322.4,484.2 
			324.5,483.3 327,482 330.3,480.4 334.1,478.4 338.4,476.1 343,473.6 348.1,470.4 353.4,467.3 359,463.6 364.7,459.6 370.6,455.3 
			376.6,450.8 382.6,445.8 388.5,440.7 394.2,435.1 399.9,429.5 405.1,423.5 410.2,417 414.9,410.4 419.1,403.6 422.9,396.4 
			426.1,388.9 428.7,381.3 430.7,373.4 431.8,365.1 432.3,356.7 		"/>
		<polyline class="st0" points="267.5,290.7 267.1,290.6 266,290 264.2,288.9 262.3,287.7 259.7,286.3 256.8,284.6 253.8,282.7 
			250.6,280.8 247.5,278.8 244.4,277 241.4,275 238.1,272.5 235.4,270.4 233.8,268.3 232.4,266.4 231.7,264.9 231.2,263.6 
			231.1,262.6 231.1,262 230.9,261.3 230.9,259.4 230.9,256.8 230.9,253.6 230.9,249.8 230.9,245.6 230.9,241.1 230.9,236.5 
			230.9,231.9 230.9,227.5 230.9,223.4 230.9,219.7 230.9,216.6 230.9,214.2 230.9,212.7 230.9,212.1 304.5,212.1 304.5,212.7 
			304.5,214.2 304.5,216.6 304.5,219.7 304.5,223.4 304.5,227.5 304.5,231.9 304.5,236.5 304.5,241.1 304.5,245.6 304.5,249.8 
			304.5,253.6 304.5,256.8 304.5,259.4 304.5,261.3 304.5,262 304.5,262.6 304.2,263.6 303.9,264.9 303.3,266.4 302.3,268.3 
			300.5,270.4 298,272.5 294.7,275 291.8,276.8 289.1,278.5 286.1,280.3 283.2,282.1 280.2,283.8 277.2,285.3 274.5,286.9 
			272.3,288.1 270.2,289.2 268.7,290 267.8,290.6 267.5,290.7 		"/>
		<line class="st5" x1="232" y1="232.8" x2="304.8" y2="232.8"/>
		<line class="st6" x1="250.8" y1="232.2" x2="250.8" y2="280.5"/>
		<line class="st6" x1="240.9" y1="232.2" x2="240.8" y2="274"/>
		<line class="st6" x1="261.5" y1="232.2" x2="261.5" y2="287.4"/>
		<line class="st6" x1="272.1" y1="232.2" x2="272.1" y2="288.1"/>
		<line class="st6" x1="282.7" y1="232.2" x2="282.7" y2="282.4"/>
		<line class="st6" x1="293.5" y1="232.2" x2="293.5" y2="276.7"/>
		<polyline class="st0" points="373.8,290.7 373.5,290.6 372.4,290 370.8,288.9 368.7,287.7 366.1,286.3 363.3,284.6 360.2,282.7 
			357,280.8 353.9,278.8 350.8,277 347.8,275 344.5,272.5 341.8,270.4 340,268.3 338.8,266.4 338.1,264.9 337.5,263.6 337.4,262.6 
			337.4,262 337.4,261.3 337.4,259.4 337.4,256.8 337.4,253.6 337.2,249.8 337.2,245.6 337.2,241.1 337.2,236.5 337.2,231.9 
			337.2,227.5 337.2,223.4 337.2,219.7 337.2,216.6 337.2,214.2 337.2,212.7 337.2,212.1 410.8,212.1 410.8,212.7 410.8,214.2 
			410.8,216.6 410.8,219.7 410.8,223.4 410.8,227.5 410.8,231.9 410.8,236.5 410.8,241.1 410.8,245.6 410.8,249.8 410.8,253.6 
			410.8,256.8 410.8,259.4 410.8,261.3 410.8,262 410.8,262.6 410.6,263.6 410.3,264.9 409.7,266.4 408.6,268.3 406.9,270.4 
			404.4,272.5 401.1,275 398.4,276.8 395.4,278.5 392.4,280.3 389.4,282.1 386.5,283.8 383.6,285.3 381,286.9 378.7,288.1 
			376.6,289.2 375.2,290 374.2,290.6 373.8,290.7 		"/>
		<polyline class="st5" points="341.7,244.9 374.4,232.2 409.7,254.2 		"/>
		<line class="st5" x1="348.7" y1="242" x2="337.8" y2="235.1"/>
		<line class="st5" x1="396.7" y1="246.1" x2="409.9" y2="240"/>
		<polyline class="st7" points="367.5,233.3 367.2,231.9 367.2,230.2 367.8,228.1 369,226.3 370.6,224.9 372.9,224.2 375.1,224 
			377.4,224.6 379.1,225.8 380.5,227.5 381.5,229.5 381.5,231.7 381.2,233.3 380.5,234.6 		"/>
		<line class="st7" x1="362" y1="229.8" x2="337.2" y2="229.8"/>
		<line class="st7" x1="364.7" y1="224.2" x2="340.3" y2="211.8"/>
		<line class="st7" x1="383.8" y1="224" x2="407.8" y2="211.8"/>
		<line class="st7" x1="369.9" y1="220.4" x2="364.2" y2="211.5"/>
		<line class="st7" x1="378.2" y1="220.3" x2="383.8" y2="211.6"/>
		<line class="st7" x1="386.6" y1="229.8" x2="410.9" y2="229.8"/>
		<line class="st5" x1="371.4" y1="275.2" x2="401.1" y2="275.2"/>
		<line class="st5" x1="336.7" y1="258.5" x2="347.8" y2="258.5"/>
		<line class="st5" x1="380.6" y1="258.5" x2="411.2" y2="258.5"/>
		<line class="st8" x1="347.8" y1="267.5" x2="381.6" y2="267.5"/>
		<polyline class="st4" points="368.7,249.2 372.2,247.5 382.9,261.3 371.4,263.9 367.9,243.4 359.1,243.4 357,262.5 347.3,262.5 
			351.5,248.5 358.8,248.5 		"/>
		<line class="st7" x1="349.1" y1="255" x2="357.5" y2="255"/>
		<line class="st7" x1="359" y1="251.2" x2="368.7" y2="251.2"/>
		<line class="st7" x1="357.8" y1="260.7" x2="370" y2="260.7"/>
		<polyline class="st1" points="346.6,266 347.5,268 381.3,268 383.6,266 346.6,266 		"/>
		<polyline class="st0" points="263.6,327.8 254.4,327.8 254.4,422.6 313.7,422.6 313.7,422.9 314,423.6 314.5,424.7 315.4,425.6 
			316.9,426.5 318.5,427.1 320.9,427.4 		"/>
		<line class="st0" x1="320.9" y1="326" x2="320.9" y2="417.8"/>
		<polyline class="st0" points="254.4,347.9 242.8,347.9 242.8,336.7 254.4,336.7 254.4,347.9 		"/>
		<polyline class="st0" points="254.4,413.5 242.8,413.5 242.8,402.4 254.4,402.4 254.4,413.5 		"/>
		<polyline class="st0" points="254.4,380.8 242.8,380.8 242.8,369.5 254.4,369.5 254.4,380.8 		"/>
		<polyline class="st0" points="378.5,327.8 387.6,327.8 387.6,422.6 328.4,422.6 328.3,422.9 328,423.6 327.5,424.7 326.6,425.6 
			325.1,426.5 323.3,427.1 320.9,427.4 		"/>
		<polyline class="st0" points="387.6,347.9 399.1,347.9 399.1,336.7 387.6,336.7 387.6,347.9 		"/>
		<polyline class="st0" points="387.6,413.5 399.1,413.5 399.1,402.4 387.6,402.4 387.6,413.5 		"/>
		<polyline class="st0" points="387.6,380.8 399.1,380.8 399.1,369.5 387.6,369.5 387.6,380.8 		"/>
		<line class="st9" x1="309.9" y1="548.2" x2="309.9" y2="548.2"/>
		<line class="st0" x1="320.9" y1="300.2" x2="320.9" y2="326"/>
		<polyline class="st4" points="121.4,294.4 122,298.4 122,302.3 121.6,305.8 120.8,309 119.5,312 117.8,314.6 115.7,316.7 
			113.2,318.2 110.2,319.4 106.9,320 103.2,320 99,319.4 95.2,318.2 92,316.4 89.5,314.1 87.5,311.4 86.2,307.9 85.6,304.2 
			85.5,300.1 85.8,297.5 86.5,294.8 87.5,292.2 93.5,293.1 92,295.6 91.4,298 91.1,300.5 91.3,303.4 92,306 93.3,308.1 95.2,309.9 
			97.5,311.5 100.2,312.4 103,312.9 106,312.7 108.9,312.1 111.1,311.1 113.2,309.5 114.8,307.3 115.9,304.9 116.5,301.9 
			116.5,299.9 116.3,297.7 116,295.7 115.4,294.4 121.4,294.4 		"/>
		<polyline class="st4" points="123.5,266 123.8,263.3 123.5,260.8 122.3,258.6 120.8,256.9 118.7,255.4 116.2,254.2 113.7,253.3 
			111.4,252.9 109.2,252.7 106.9,252.9 104.7,253.3 102.9,254.1 101.1,255.4 99.8,257.1 99,259.4 98.4,262 99,264.5 99.9,266.6 
			101.4,268.4 103.5,269.9 105.9,271.1 108.4,271.9 110.7,272.5 113.1,272.6 115.3,272.5 117.5,272.2 119.3,271.3 121.1,270.1 
			122.5,268.3 123.5,266 		"/>
		<polyline class="st4" points="93.5,257.9 94.9,254.4 96.8,251.3 99.2,248.9 101.7,247.1 104.9,246.1 108.4,245.5 112,245.6 
			115.7,246.4 119.3,247.6 122.5,249.5 125.1,251.5 127.2,254.1 128.6,256.9 129.3,260.1 129.5,263.7 128.7,267.5 127.4,271.1 
			125.4,274.3 123.1,276.5 120.2,278.2 117.3,279.4 113.8,279.9 110.2,279.7 106.3,279 102.7,277.6 99.6,275.9 96.9,273.8 
			94.9,271.3 93.5,268.4 92.9,265.2 92.9,261.7 93.5,257.9 		"/>
		<polyline class="st4" points="122.3,226.6 123.5,224.5 124.1,223 124.7,221.3 125,219.7 124.7,218.3 123.9,217 122.3,215.9 
			120.6,215.3 119,215.4 117.8,216.2 116.6,217.4 115.7,218.8 114.8,220.3 113.8,222.3 122.3,226.6 		"/>
		<polyline class="st4" points="105.6,226 109.2,219.4 110.1,217.4 111.1,215.4 112.5,213.5 113.7,211.6 115.1,210 116.6,209 
			118.4,208.2 120.5,207.9 122.6,208.2 125.1,209.1 127.2,210.3 128.6,212.3 129.5,214.4 129.7,216.6 129.2,219.1 130.2,218.2 
			131.4,217.7 132.9,217.4 134.2,217.4 149.2,218.6 145.6,225.5 133.8,224.3 131.9,224.3 130.5,224.6 129.3,225.5 128.3,227.1 
			127.2,229 140.4,235.4 137.2,241.7 105.6,226 		"/>
		<polyline class="st4" points="127.7,187.8 133,181.1 162.2,186.9 141.4,170.8 145.7,165.6 173.5,187.1 168,193.6 139,188 
			138.8,188 159.5,204 155.4,209.1 127.7,187.8 		"/>
		<polyline class="st4" points="161.1,150.9 176.9,137.7 180.5,141.8 170,150.6 175.7,156.9 185.3,149 188.9,153.3 179.3,161.3 
			185.7,168.5 196.2,159.8 199.9,164 183.8,177.1 161.1,150.9 		"/>
		<polyline class="st4" points="192.7,127 198.9,123.4 214.1,148.3 225.9,141.5 228.7,146.2 210.8,156.6 192.7,127 		"/>
		<polyline class="st4" points="227.4,108.9 234.2,106.5 244.7,133.5 257.5,128.8 259.6,133.8 240.2,141.2 227.4,108.9 		"/>
		<polyline class="st4" points="288.3,92.6 295.4,92.2 296.8,111.9 297.1,114.7 297.8,117.1 298.8,118.9 300.3,120.3 302.3,121 
			304.8,121.2 307.1,120.8 309,119.7 310.2,118.1 311.1,116.2 311.4,113.7 311.4,111 309.9,91.1 317,90.7 318.5,112.7 318.5,115.9 
			318.1,118.6 317,120.9 315.6,122.9 313.6,124.3 311.2,125.5 308.4,126.3 305.1,126.6 302,126.6 299,126.3 296.5,125.5 
			294.2,124.3 292.6,122.5 291.2,120.4 290.3,117.7 289.9,114.5 288.3,92.6 		"/>
		<polyline class="st4" points="337.4,91.3 346,92.3 356,119.5 356.2,119.7 359.6,94 366.3,94.9 361.8,129 353.3,127.9 343.2,100.8 
			343,100.8 339.6,126.3 333,125.5 337.4,91.3 		"/>
		<polyline class="st4" points="386.6,99.9 393.4,101.8 383.5,134.7 376.6,132.9 386.6,99.9 		"/>
		<polyline class="st4" points="410.5,107.1 417.3,110.2 413.6,138.5 433.7,117.8 440.1,120.8 414.1,146.9 406.3,143.2 410.5,107.1 
					"/>
		<polyline class="st4" points="454.5,129.7 471.3,141.8 468.1,146.2 456.9,138.3 451.8,145.1 461.9,152.4 458.7,156.8 448.5,149.5 
			442.7,157.2 453.8,165.3 450.5,169.6 433.6,157.5 454.5,129.7 		"/>
		<polyline class="st4" points="481.1,170.5 482.7,172.2 483.9,173.5 485.4,174.5 486.7,175.3 488.2,175.6 489.7,175.4 491.5,174.4 
			492.5,172.8 492.8,171.4 492.5,170 491.9,168.5 490.8,167.2 489.6,166 487.9,164.3 481.1,170.5 		"/>
		<polyline class="st4" points="487.3,155.6 492.5,161 494.2,162.8 496,164.7 497.6,166.7 498.8,168.7 499.7,170.6 500,172.8 
			499.7,175 498.8,177.1 496.7,179.2 494.9,180.6 492.7,181.2 490.3,181.4 487.9,180.7 485.8,179.4 485.8,179.5 486.4,180.7 
			486.4,182 486.1,183.3 485.7,184.5 479.4,197.9 474,192.2 479.2,181.8 479.8,180.1 480.1,178.8 479.7,177.4 478.5,175.9 
			477,174.2 466.1,183.9 461.3,178.9 487.3,155.6 		"/>
		<polyline class="st4" points="521.4,208.8 520.6,205.5 518.8,202.2 517.9,201.1 516.9,200 515.5,199.4 513.7,199.4 511.8,200.2 
			510.9,201.1 510.4,202.3 510.3,203.8 510.4,205.5 510.9,207.3 511.2,209.3 511.5,211.5 511.5,213.5 511.2,215.4 510.4,217.4 
			509,219.2 507,220.7 504.2,222.1 501.5,222.6 499,222.1 496.6,221.2 494.5,219.7 492.5,217.7 490.8,215.4 489.6,213.2 
			488.6,211.3 487.9,209.4 487.2,207.2 493,204.4 493.3,207.2 494.2,209.7 495.4,212.3 496.4,213.5 497.7,214.7 499.3,215.4 
			500.9,215.6 502.5,215 503.6,214.1 504.2,212.7 504.3,211.2 504.2,209.4 503.9,207.5 503.6,205.5 503.2,203.5 503.2,201.6 
			503.6,199.4 504.3,197.5 505.5,195.7 507.6,194.2 510.4,192.8 513,192.4 515.5,192.7 517.9,193.6 520,194.9 521.9,196.8 
			523.4,198.8 525.5,202.6 526.7,206.4 521.4,208.8 		"/>
		<polyline class="st4" points="536.7,224.9 539.6,231.1 507.1,244.7 504.3,238.5 536.7,224.9 		"/>
		<polyline class="st4" points="543.2,257.9 540.6,248.5 546,247 553,272.8 547.4,274.3 544.9,264.6 516.1,271.9 514.3,265.4 
			543.2,257.9 		"/>
		<polyline class="st4" points="535.1,301.6 555.6,287.8 556.2,295.7 541.8,304.9 557.3,312.3 557.8,319.4 535.5,308.5 521.6,309.3 
			521.1,302.5 535.1,301.6 		"/>
		<polyline class="st4" points="122.6,362.1 127.7,380.5 122.2,381.9 119,370.1 110.5,372.2 113.7,383.5 108.3,384.9 105.3,373.7 
			90.2,377.5 88.4,370.9 122.6,362.1 		"/>
		<polyline class="st4" points="110.7,417.8 112,419.9 113.7,421.4 115.6,422.3 117.7,422.8 119.8,422.8 122,422.5 124.4,421.9 
			126.6,421.1 128.7,419.7 131,418.2 132.7,416.4 133.8,414.3 134.5,412.2 134.4,409.6 133.6,407.1 132.2,404.9 130.7,403.6 
			128.7,402.5 126.8,402.1 124.5,402.1 122.3,402.2 120.1,402.8 118,403.7 115.6,404.9 113.4,406.6 111.7,408.4 110.4,410.4 
			109.8,412.8 109.8,415.2 110.7,417.8 		"/>
		<polyline class="st4" points="138.6,404.6 140.1,408.7 140.7,412.6 140.2,416.3 138.8,419.7 136.6,422.6 133.5,425.4 129.7,427.6 
			126.1,428.9 122.6,429.7 119.2,429.8 115.9,429.2 112.9,428 110.1,426 107.7,423.5 105.7,420.2 104.3,416.6 103.7,413.1 
			103.8,409.8 104.6,406.8 106.2,403.9 108.6,401.5 111.4,399.2 114.7,397.3 118.4,395.8 121.9,395 125.3,395 128.4,395.4 
			131.4,396.8 134.2,398.7 136.6,401.3 138.6,404.6 		"/>
		<polyline class="st4" points="152.6,430.4 156.9,436 141,448.2 138.8,450 137.2,451.9 136.3,453.8 136,455.8 136.3,457.8 
			137.5,459.7 139.5,461.5 141.3,462.4 143.2,462.6 145.4,462.1 147.5,461 149.9,459.3 166,447.1 170.3,452.5 152.6,466 
			149.5,468.2 146.5,469.2 143.6,469.5 140.8,468.9 138.1,467.7 135.7,465.7 133.2,463.2 131.1,460.2 129.9,457.3 129.2,454.6 
			129.3,451.9 130.4,449.1 132,446.4 134.9,444 152.6,430.4 		"/>
		<polyline class="st4" points="181,463.2 187.7,468.5 181.1,496.7 198.1,476.9 203.3,481.1 180.7,507.5 174.1,502.2 180.5,474.2 
			180.5,474 163.6,493.8 158.4,489.6 181,463.2 		"/>
		<polyline class="st4" points="209.7,518.9 213.3,520.7 215.7,521.6 218,521.9 220.5,521.7 223,521.1 225.4,519.8 227.4,517.9 
			229.2,515.4 230.4,512.2 230.5,508.9 230.1,506 228.7,503.5 226.8,501.3 224.2,499.8 220.8,498 209.7,518.9 		"/>
		<polyline class="st4" points="217.1,490 225.7,494.3 228.5,495.8 231.1,497.4 233.2,499.5 235.3,501.5 236.6,503.8 237.8,506.2 
			238.3,508.9 238.1,512 237.2,515.2 235.7,518.7 233.8,521.9 231.4,524.6 229,526.4 226.5,527.6 223.8,528.2 221,528.4 218.1,528 
			215.3,527.3 212.4,526.2 209.6,525 200.9,520.5 217.1,490 		"/>
		<polyline class="st4" points="256.5,507.7 276.5,513.4 275,518.6 261.8,514.9 259.3,522.9 271.4,526.5 269.8,531.7 257.7,528.2 
			254.8,537.5 268.2,541.3 266.6,546.5 246.6,540.9 256.5,507.7 		"/>
		<polyline class="st4" points="296.9,546 300.8,546.3 303.3,546.3 305.9,545.7 308.1,544.7 310.1,543.1 311.7,541 312.9,538.6 
			313.3,535.5 313.3,532.4 312.6,529.9 311.4,527.6 309.6,525.8 307.6,524.3 305.4,523.4 302.9,522.8 299,522.5 296.9,546 		"/>
		<polyline class="st4" points="292.4,516.6 302,517.3 305.1,517.6 308.2,518.3 311.1,519.2 313.6,520.4 315.9,521.9 317.8,524 
			319.2,526.2 320.3,529 320.9,532.3 320.8,536.2 320.3,540 319.2,543 317.6,545.6 315.7,547.7 313.6,549.3 311.1,550.5 
			308.4,551.3 305.4,551.7 302.3,551.9 299.1,551.7 289.6,551 292.4,516.6 		"/>
		<polyline class="st4" points="366.4,520.4 366.3,520.4 364.5,535.3 374.5,533 366.4,520.4 		"/>
		<polyline class="st4" points="361.1,514.6 368.8,512.8 390.3,543.3 382.6,545 377.9,538 363.9,541.2 362.7,549.6 355.6,551.1 
			361.1,514.6 		"/>
		<polyline class="st4" points="396.3,533.3 402.8,530.9 405.3,537.5 398.7,540 396.3,533.3 		"/>
		<polyline class="st4" points="421.9,524.6 425.4,522.6 427.8,521 429.6,518.9 431,516.3 431.5,513.4 431.2,510.1 430,506.9 
			428.2,504.4 426,502.5 423.6,501.3 421.3,500.7 418.8,500.6 416.3,501 413.9,501.9 410.5,503.6 421.9,524.6 		"/>
		<polyline class="st4" points="401.5,502.1 410.2,497.6 413,496.2 415.8,495.2 418.8,494.4 421.6,494.1 424.3,494.3 427,494.9 
			429.6,495.9 432,497.8 434.3,500.3 436.4,503.6 437.9,506.9 438.8,510.1 439,513.3 438.5,516 437.6,518.4 436.3,520.7 
			434.3,522.8 432.1,524.9 429.6,526.5 426.9,528 418.4,532.4 401.5,502.1 		"/>
		<polyline class="st4" points="448.6,507.4 454.5,503.5 458.5,509.1 452.7,513.1 448.6,507.4 		"/>
		<polyline class="st4" points="465.8,457.5 470.3,453.2 495.7,477.2 490.6,482 471,463.6 470.4,471 464.6,470.3 465.8,457.5 		"/>
		<polyline class="st4" points="503.9,452.9 505.7,453.8 507.6,453.7 509.4,453.1 510.9,451.5 511.6,450.2 511.9,448.8 511.8,447.4 
			511.2,446 510.1,444.9 508.4,444 506.7,443.9 504.9,444.3 503.2,445.1 501.6,446 501.5,448.1 501.6,449.9 502.2,451.5 
			503.9,452.9 		"/>
		<polyline class="st4" points="496,435.8 494.5,435 492.7,434.8 491.2,435.5 489.9,436.8 489.1,438 488.8,439.5 488.8,440.8 
			489.2,442.1 490.3,443.1 491.9,443.9 493.4,443.9 495.1,443.4 496.4,442.7 497.9,441.8 498,440.2 497.9,438.6 497,437.1 
			496,435.8 		"/>
		<polyline class="st4" points="503.2,438.9 505.7,437.8 508.1,437.2 510.1,437.4 511.9,438 514,439.2 516.1,441 517.5,443 
			518.1,445.2 518.2,447.4 517.8,449.9 516.7,452.2 515.2,454.6 513,457 510.7,459 508.2,460.2 505.4,460.6 502.5,460 499.7,458.5 
			498,457.2 497,455.3 496.3,453.4 496.1,451.1 496.3,448.5 493.7,449.6 491.2,450 488.6,449.6 486.3,448.5 484,446.4 482.8,444.3 
			482.4,441.9 482.7,439.3 483.6,436.9 485.2,434.2 487.2,432 489.4,430.1 491.7,428.9 494.2,428.3 497,428.5 499.3,429.7 
			500.9,430.9 502.1,432.6 502.8,434.4 503.4,436.6 503.1,438.9 503.2,438.9 		"/>
		<polyline class="st4" points="524.4,418.5 526.1,419.1 528,419.4 529.5,419.1 531,418.4 532.1,416.9 532.5,415.2 532.2,413.7 
			531.5,412.3 530,411.1 528.5,410.1 526.6,409.3 524.6,409 523,409.3 521.6,410.1 520.4,411.6 520,413.2 520.1,414.9 521.1,416.3 
			522.5,417.5 524.4,418.5 		"/>
		<polyline class="st4" points="514.2,398.7 512.7,400.1 511.3,401.6 510.1,403.4 509.4,405.7 509.4,407.8 510.1,409.6 511.2,411.4 
			512.7,412.9 514.5,414.3 516.4,415.5 516.6,415.3 515.5,412.9 515.5,410.4 516.2,407.8 517.9,405.4 520,403.6 522.4,402.5 
			524.9,402.1 527.7,402.4 530.5,403.4 533.1,404.9 535.4,406.8 536.9,408.7 538,411.1 538.3,413.5 538,416.3 536.9,419.1 
			535.4,421.6 533.4,423.5 531.5,424.7 529.2,425.3 526.9,425.4 524.4,425.3 521.9,424.7 519.4,423.8 516.9,422.6 514,421.1 
			511.3,419.4 508.8,417.6 506.7,415.5 505.1,413.1 504,410.4 503.6,407.7 503.9,404.6 504.9,401.5 507,398.3 509.4,395.4 
			514.2,398.7 		"/>
		<polyline class="st4" points="524.9,361.6 521.6,374.4 528.8,376.4 528.9,375 529.2,373.2 529.8,371.5 530.6,369.6 531.9,368.1 
			533.3,366.8 535.2,365.7 537.6,365 540.3,365 543.2,365.4 545.8,366.3 548.1,367.7 550,369.6 551.2,371.9 551.9,374.7 
			551.9,377.8 551.3,381.3 550.6,383.8 549.5,386.5 548.4,388.8 542.2,387.1 543.6,385.4 544.8,383.2 545.8,380.7 546.2,379 
			546.2,377.2 545.7,375.5 544.9,374.1 543.6,372.9 541.6,372.1 539.6,371.9 537.9,372.2 536.4,373.4 535.2,374.7 534.3,376.4 
			533.6,378.2 533.1,381.3 533,384.3 514.6,379.3 519.8,360.3 524.9,361.6 		"/>
	</g>
</g>
</svg>
